<svg viewBox="109.2708 205.9722 271.359 83.0688" width="271.359" height="83.069" xmlns="http://www.w3.org/2000/svg">
  <g transform="matrix(1, 0, 0, 1, 67.68682861328125, 160.5530548095703)">
    <rect x="7.485" y="263.762" width="14.083" height="13.36" style="stroke: rgb(0, 0, 0); fill: rgb(215, 187, 159);" rx="6.455" ry="6.455" transform="matrix(0.362868, -0.931841, 0.920194, 0.392777, -70.320783, -32.999775)"/>
    <path style="stroke: rgb(0, 0, 0); fill: rgb(207, 228, 242);" d="M 44.996 82.301 L 41.584 94.5 L 152.848 107.883 L 127.498 121.112 L 126.668 128.488 L 238.682 128.351 L 238.023 121.28 L 210.41 107.09 L 312.943 93.912 L 308.944 81.05 L 44.996 82.301 Z"/>
    <path style="stroke: rgb(0, 0, 0); fill: rgb(215, 187, 159);" d="M 184.519 62.958 C 184.519 62.958 176.768 71.405 168.131 74.577 C 162.946 76.481 145.772 80.287 145.772 80.287 L 166.106 87.057 C 166.106 87.057 174.212 85.415 179.555 83.099 C 183.961 81.189 192.913 73.28 192.913 73.28" transform="matrix(0.893423, -0.449216, 0.449216, 0.893423, -15.64656, 84.065429)"/>
    <rect x="66.235" y="235.538" width="124.621" height="11.93" style="stroke: rgb(0, 0, 0); fill: rgb(215, 187, 159);" rx="6.455" ry="6.455" transform="matrix(0.960577, -0.278015, 0.675448, 0.84555, -97.898424, -74.133988)"/>
    <rect x="38.482" y="235.538" width="72.404" height="11.93" style="stroke: rgb(0, 0, 0); fill: rgb(215, 187, 159);" rx="6.455" ry="6.455" transform="matrix(0.960577, -0.278015, 0.675448, 0.84555, -98.42022, -86.415121)"/>
    <rect x="60.323" y="254.801" width="113.5" height="12.906" style="stroke: rgb(0, 0, 0); fill: rgb(215, 187, 159);" rx="6.455" ry="6.455" transform="matrix(0.948864, 0.315684, -0.342382, 0.939982, 161.667226, -189.347517)"/>
    <path style="stroke: rgb(0, 0, 0); fill: rgb(215, 187, 159);" d="M 133.612 83.473 C 131.784 82.943 128.258 82.189 126.366 82.189 C 125.984 82.189 109.321 82.365 108.982 82.103 C 108.13 81.444 121.226 67.9 135.996 70.879"/>
    <path style="stroke: rgb(0, 0, 0); fill: rgb(215, 187, 159);" d="M 102.584 108.102 C 100.864 106.697 99.342 105.056 98.151 103.164 C 97.964 102.867 97.031 101.722 97.392 101.218 C 97.497 101.071 98.755 101.211 98.988 101.211 C 100.571 101.211 101.713 100.498 103.14 100.498"/>
    <path style="stroke: rgb(0, 0, 0); fill: rgb(215, 187, 159);" d="M 227.433 114.624 C 242.594 119.716 260.305 101.373 255.028 101.723 C 250.312 102.035 239.843 103.299 239.331 103.299 C 237.29 103.299 231.818 102.701 229.792 101.791"/>
    <path style="stroke: rgb(0, 0, 0); fill: rgb(215, 187, 159);" d="M 237.202 74.025 C 246.892 71.098 258.161 76.66 257 80.797 C 256.851 81.328 249.873 82.6 247.173 83.693"/>
    <rect x="12.672" y="254.771" width="23.842" height="12.904" style="stroke: rgb(0, 0, 0); fill: rgb(215, 187, 159);" rx="6.455" ry="6.455" transform="matrix(0.619574, -0.784938, 0.765052, 0.644768, -0.303703, -83.926054)"/>
    <path style="stroke: rgb(0, 0, 0); fill: rgb(215, 187, 159);" d="M 207.311 64.11 C 207.311 64.11 199.56 72.557 190.923 75.729 C 185.738 77.633 168.564 81.439 168.564 81.439 L 188.898 88.209 C 188.898 88.209 197.004 86.567 202.347 84.251 C 206.753 82.341 215.705 74.432 215.705 74.432"/>
    <rect x="172.967" y="98.459" width="12.541" height="4.037" style="stroke: rgb(0, 0, 0); fill: rgb(215, 187, 159);" transform="matrix(-0.203386, -0.979099, 0.979099, -0.203386, 115.106642, 248.290648)"/>
    <rect x="182.833" y="98.459" width="13.257" height="4.037" style="stroke: rgb(0, 0, 0); fill: rgb(215, 187, 159);" transform="matrix(0.073556, -0.997291, 0.997291, 0.073556, 66.182663, 233.73571)"/>
    <rect x="171.279" y="98.459" width="12.419" height="4.037" style="stroke: rgb(0, 0, 0); fill: rgb(215, 187, 159);" transform="matrix(0.314457, -0.949272, 0.949272, 0.314457, 33.076958, 189.722047)"/>
    <rect x="177.379" y="98.459" width="12.861" height="4.037" style="stroke: rgb(0, 0, 0); fill: rgb(215, 187, 159);" transform="matrix(0.593062, -0.805157, 0.805157, 0.593062, 1.436423, 145.274418)"/>
    <rect x="211.451" y="98.459" width="15.332" height="4.037" style="stroke: rgb(0, 0, 0); fill: rgb(215, 187, 159);" transform="matrix(0.532059, -0.846707, 0.846707, 0.532059, -13.94048, 186.205856)"/>
    <rect x="172.967" y="98.459" width="12.541" height="4.037" style="stroke: rgb(0, 0, 0); fill: rgb(215, 187, 159);" transform="matrix(-0.027402, -0.999624, 0.999624, -0.027402, 116.681366, 235.909242)"/>
    <rect x="182.833" y="98.459" width="13.257" height="4.037" style="stroke: rgb(0, 0, 0); fill: rgb(215, 187, 159);" transform="matrix(0.248404, -0.968657, 0.968657, 0.248404, 71.093896, 212.948999)"/>
    <rect x="171.279" y="98.459" width="12.419" height="4.037" style="stroke: rgb(0, 0, 0); fill: rgb(215, 187, 159);" transform="matrix(0.477049, -0.878877, 0.878877, 0.477049, 46.275495, 163.783558)"/>
    <rect x="177.379" y="98.459" width="12.861" height="4.037" style="stroke: rgb(0, 0, 0); fill: rgb(215, 187, 159);" transform="matrix(0.725847, -0.687856, 0.687856, 0.725847, 22.975723, 114.449639)"/>
    <rect x="211.451" y="98.459" width="15.332" height="4.037" style="stroke: rgb(0, 0, 0); fill: rgb(215, 187, 159);" transform="matrix(0.673135, -0.73952, 0.73952, 0.673135, 0.616529, 152.02493)"/>
    <rect x="204.673" y="96.139" width="14.84" height="3.942" style="fill: rgb(216, 216, 216); stroke: rgb(0, 0, 0);" transform="matrix(0.90659, 0.422013, -0.622383, 0.813318, 85.228694, -105.712169)"/>
    <rect x="204.673" y="96.139" width="14.84" height="3.942" style="fill: rgb(216, 216, 216); stroke: rgb(0, 0, 0);" transform="matrix(0.988458, 0.151495, -0.36996, 0.954975, 10.085734, -65.412363)"/>
  </g>
</svg>